%TF.GenerationSoftware,KiCad,Pcbnew,8.0.7*%
%TF.CreationDate,2026-01-13T16:27:58+00:00*%
%TF.ProjectId,analclock v1,616e616c-636c-46f6-936b-2076312e6b69,rev?*%
%TF.SameCoordinates,Original*%
%TF.FileFunction,Legend,Top*%
%TF.FilePolarity,Positive*%
%FSLAX46Y46*%
G04 Gerber Fmt 4.6, Leading zero omitted, Abs format (unit mm)*
G04 Created by KiCad (PCBNEW 8.0.7) date 2026-01-13 16:27:58*
%MOMM*%
%LPD*%
G01*
G04 APERTURE LIST*
%ADD10C,0.150000*%
%ADD11C,0.120000*%
%ADD12C,0.100000*%
%ADD13C,0.200000*%
G04 APERTURE END LIST*
D10*
G36*
X-16120027Y-3677864D02*
G01*
X-16166601Y-3781144D01*
X-16208504Y-3885455D01*
X-16245736Y-3990796D01*
X-16278297Y-4097168D01*
X-16306186Y-4204570D01*
X-16314445Y-4240600D01*
X-16336192Y-4348980D01*
X-16353440Y-4457602D01*
X-16366188Y-4566463D01*
X-16374437Y-4675566D01*
X-16378186Y-4784908D01*
X-16378436Y-4821409D01*
X-16376135Y-4931147D01*
X-16369231Y-5040541D01*
X-16357725Y-5149591D01*
X-16341617Y-5258299D01*
X-16320906Y-5366662D01*
X-16312979Y-5402707D01*
X-16286338Y-5510224D01*
X-16255506Y-5616984D01*
X-16220484Y-5722990D01*
X-16181271Y-5828239D01*
X-16137869Y-5932733D01*
X-16122470Y-5967397D01*
X-16115143Y-5995240D01*
X-16124424Y-6014291D01*
X-16153733Y-6025526D01*
X-16207955Y-6028946D01*
X-16250453Y-6027480D01*
X-16281716Y-6022107D01*
X-16302721Y-6012337D01*
X-16314933Y-6000125D01*
X-16359622Y-5912780D01*
X-16404813Y-5815928D01*
X-16445847Y-5718269D01*
X-16482390Y-5619906D01*
X-16514777Y-5520274D01*
X-16540614Y-5428597D01*
X-16564615Y-5326829D01*
X-16584230Y-5224368D01*
X-16598255Y-5130621D01*
X-16609101Y-5026444D01*
X-16615445Y-4921459D01*
X-16617306Y-4825317D01*
X-16614824Y-4719713D01*
X-16607378Y-4615148D01*
X-16596301Y-4520990D01*
X-16579446Y-4418120D01*
X-16558436Y-4315712D01*
X-16535729Y-4223014D01*
X-16506564Y-4121556D01*
X-16473474Y-4021367D01*
X-16439986Y-3931388D01*
X-16399691Y-3833277D01*
X-16356048Y-3735744D01*
X-16313468Y-3647578D01*
X-16306140Y-3638297D01*
X-16289043Y-3629993D01*
X-16258757Y-3623642D01*
X-16209420Y-3621688D01*
X-16158618Y-3626085D01*
X-16128332Y-3636831D01*
X-16116120Y-3654417D01*
X-16120027Y-3677864D01*
G37*
G36*
X-14739806Y-3704143D02*
G01*
X-14704884Y-3715478D01*
X-14617419Y-3765189D01*
X-14600348Y-3779958D01*
X-14540070Y-3860896D01*
X-14531960Y-3878632D01*
X-14508240Y-3976746D01*
X-14507048Y-4007103D01*
X-14521336Y-4103824D01*
X-14532449Y-4134110D01*
X-14584661Y-4217818D01*
X-14603768Y-4238157D01*
X-14685651Y-4296153D01*
X-14712212Y-4308011D01*
X-14807392Y-4330953D01*
X-14847522Y-4332923D01*
X-14945589Y-4321315D01*
X-14980390Y-4310453D01*
X-15066913Y-4260891D01*
X-15083949Y-4245973D01*
X-15142814Y-4167859D01*
X-15152826Y-4146810D01*
X-15176081Y-4048231D01*
X-15177250Y-4017850D01*
X-15175966Y-4009057D01*
X-15007257Y-4009057D01*
X-14995045Y-4080865D01*
X-14959874Y-4136064D01*
X-14906140Y-4171723D01*
X-14839218Y-4184424D01*
X-14777180Y-4171235D01*
X-14726378Y-4134110D01*
X-14692672Y-4079399D01*
X-14679972Y-4011988D01*
X-14692672Y-3943600D01*
X-14726866Y-3888890D01*
X-14779134Y-3853230D01*
X-14845080Y-3840530D01*
X-14909071Y-3853230D01*
X-14960362Y-3888890D01*
X-14995045Y-3943112D01*
X-15007257Y-4009057D01*
X-15175966Y-4009057D01*
X-15162687Y-3918107D01*
X-15151360Y-3887424D01*
X-15098218Y-3804277D01*
X-15079064Y-3784842D01*
X-14997777Y-3728707D01*
X-14971598Y-3716943D01*
X-14872496Y-3693587D01*
X-14836775Y-3692030D01*
X-14739806Y-3704143D01*
G37*
G36*
X-12608792Y-4919595D02*
G01*
X-12614274Y-5023544D01*
X-12630721Y-5122656D01*
X-12642009Y-5166769D01*
X-12677566Y-5263073D01*
X-12726960Y-5348531D01*
X-12743614Y-5370956D01*
X-12816100Y-5444880D01*
X-12898860Y-5499350D01*
X-12918492Y-5509197D01*
X-13011465Y-5542090D01*
X-13108734Y-5557569D01*
X-13170551Y-5560000D01*
X-13268725Y-5553989D01*
X-13275087Y-5553161D01*
X-13372784Y-5534598D01*
X-13458757Y-5508709D01*
X-13526657Y-5477934D01*
X-13569155Y-5453510D01*
X-13591137Y-5431528D01*
X-13599441Y-5405150D01*
X-13600907Y-5365094D01*
X-13590160Y-5283517D01*
X-13559385Y-5263489D01*
X-13517864Y-5281074D01*
X-13445568Y-5318199D01*
X-13352244Y-5352010D01*
X-13341032Y-5355324D01*
X-13240282Y-5371352D01*
X-13202302Y-5372421D01*
X-13103019Y-5360538D01*
X-13045010Y-5338715D01*
X-12964284Y-5279000D01*
X-12934612Y-5243461D01*
X-12886377Y-5153000D01*
X-12868667Y-5097892D01*
X-12850892Y-4997806D01*
X-12846685Y-4912267D01*
X-12852403Y-4813693D01*
X-12864759Y-4741297D01*
X-12895136Y-4648180D01*
X-12921423Y-4599637D01*
X-12990217Y-4524282D01*
X-13024005Y-4501939D01*
X-13118072Y-4470063D01*
X-13176413Y-4465792D01*
X-13206699Y-4465792D01*
X-13282414Y-4446741D01*
X-13305373Y-4375422D01*
X-13305373Y-3655882D01*
X-13211896Y-3621989D01*
X-13191556Y-3621688D01*
X-13104117Y-3629993D01*
X-13080181Y-3653928D01*
X-13080181Y-4286029D01*
X-12980041Y-4303614D01*
X-12888695Y-4339762D01*
X-12803097Y-4397438D01*
X-12739706Y-4464815D01*
X-12684630Y-4553475D01*
X-12647858Y-4645077D01*
X-12643475Y-4659232D01*
X-12621019Y-4757345D01*
X-12610452Y-4857214D01*
X-12608792Y-4919595D01*
G37*
G36*
X-11273512Y-3704143D02*
G01*
X-11238590Y-3715478D01*
X-11151124Y-3765189D01*
X-11134054Y-3779958D01*
X-11073776Y-3860896D01*
X-11065666Y-3878632D01*
X-11041945Y-3976746D01*
X-11040753Y-4007103D01*
X-11055041Y-4103824D01*
X-11066154Y-4134110D01*
X-11118366Y-4217818D01*
X-11137473Y-4238157D01*
X-11219357Y-4296153D01*
X-11245917Y-4308011D01*
X-11341098Y-4330953D01*
X-11381228Y-4332923D01*
X-11479294Y-4321315D01*
X-11514096Y-4310453D01*
X-11600619Y-4260891D01*
X-11617655Y-4245973D01*
X-11676519Y-4167859D01*
X-11686531Y-4146810D01*
X-11709787Y-4048231D01*
X-11710956Y-4017850D01*
X-11709672Y-4009057D01*
X-11540963Y-4009057D01*
X-11528750Y-4080865D01*
X-11493579Y-4136064D01*
X-11439846Y-4171723D01*
X-11372923Y-4184424D01*
X-11310886Y-4171235D01*
X-11260083Y-4134110D01*
X-11226378Y-4079399D01*
X-11213677Y-4011988D01*
X-11226378Y-3943600D01*
X-11260572Y-3888890D01*
X-11312840Y-3853230D01*
X-11378785Y-3840530D01*
X-11442777Y-3853230D01*
X-11494068Y-3888890D01*
X-11528750Y-3943112D01*
X-11540963Y-4009057D01*
X-11709672Y-4009057D01*
X-11696393Y-3918107D01*
X-11685066Y-3887424D01*
X-11631924Y-3804277D01*
X-11612770Y-3784842D01*
X-11531483Y-3728707D01*
X-11505303Y-3716943D01*
X-11406202Y-3693587D01*
X-11370481Y-3692030D01*
X-11273512Y-3704143D01*
G37*
G36*
X-10235729Y-4825317D02*
G01*
X-10238038Y-4931036D01*
X-10244964Y-5035948D01*
X-10255268Y-5130621D01*
X-10270675Y-5233711D01*
X-10290699Y-5336109D01*
X-10312909Y-5428597D01*
X-10341461Y-5529384D01*
X-10374052Y-5628901D01*
X-10407187Y-5718269D01*
X-10447388Y-5815928D01*
X-10492090Y-5912780D01*
X-10536636Y-6000125D01*
X-10549337Y-6012337D01*
X-10570341Y-6022107D01*
X-10601605Y-6027480D01*
X-10644103Y-6028946D01*
X-10699790Y-6025526D01*
X-10728611Y-6014291D01*
X-10736915Y-5995240D01*
X-10729099Y-5967397D01*
X-10683836Y-5863618D01*
X-10642935Y-5758912D01*
X-10606396Y-5653279D01*
X-10574219Y-5546719D01*
X-10546404Y-5439231D01*
X-10538101Y-5403196D01*
X-10516188Y-5294780D01*
X-10498809Y-5186056D01*
X-10485963Y-5077023D01*
X-10477651Y-4967680D01*
X-10473873Y-4858028D01*
X-10473621Y-4821409D01*
X-10475888Y-4711986D01*
X-10482689Y-4602804D01*
X-10494023Y-4493862D01*
X-10509891Y-4385161D01*
X-10530293Y-4276700D01*
X-10538101Y-4240600D01*
X-10564565Y-4132854D01*
X-10595598Y-4026139D01*
X-10631198Y-3920455D01*
X-10671366Y-3815800D01*
X-10716103Y-3712176D01*
X-10732030Y-3677864D01*
X-10735938Y-3654417D01*
X-10723726Y-3636831D01*
X-10693440Y-3626085D01*
X-10642637Y-3621688D01*
X-10594766Y-3623642D01*
X-10563503Y-3629993D01*
X-10546406Y-3638297D01*
X-10538101Y-3647578D01*
X-10495335Y-3735429D01*
X-10447982Y-3841858D01*
X-10404958Y-3949386D01*
X-10366260Y-4058013D01*
X-10331891Y-4167739D01*
X-10316329Y-4223014D01*
X-10288937Y-4334085D01*
X-10267213Y-4446016D01*
X-10251156Y-4558804D01*
X-10240766Y-4672452D01*
X-10236044Y-4786958D01*
X-10235729Y-4825317D01*
G37*
G36*
X11518562Y-6431430D02*
G01*
X11604535Y-6379895D01*
X11633538Y-6429430D01*
X11663912Y-6470570D01*
X11702172Y-6508855D01*
X11749303Y-6538241D01*
X11799124Y-6551170D01*
X11813852Y-6551842D01*
X11863128Y-6545919D01*
X11909351Y-6528150D01*
X11950774Y-6498238D01*
X11977250Y-6464403D01*
X11996209Y-6417872D01*
X12000697Y-6379651D01*
X11992088Y-6329153D01*
X11968378Y-6282810D01*
X11966259Y-6279755D01*
X11933424Y-6239673D01*
X11893856Y-6200411D01*
X11851221Y-6163251D01*
X11808722Y-6129317D01*
X11793335Y-6117578D01*
X11749331Y-6083629D01*
X11706459Y-6048732D01*
X11668624Y-6015061D01*
X11636043Y-5979581D01*
X11607836Y-5934978D01*
X11590075Y-5888181D01*
X11582763Y-5839189D01*
X11582554Y-5829127D01*
X11587754Y-5778830D01*
X11603353Y-5732322D01*
X11614061Y-5712135D01*
X11644051Y-5672821D01*
X11682426Y-5641004D01*
X11702965Y-5628848D01*
X11751253Y-5609081D01*
X11802846Y-5599391D01*
X11827773Y-5598318D01*
X11879957Y-5603023D01*
X11929531Y-5617140D01*
X11961130Y-5631779D01*
X12004786Y-5661422D01*
X12041749Y-5695549D01*
X12075546Y-5733346D01*
X12092777Y-5754877D01*
X12010467Y-5817159D01*
X11979770Y-5778292D01*
X11945819Y-5742016D01*
X11913258Y-5716531D01*
X11865680Y-5696782D01*
X11825575Y-5692107D01*
X11776401Y-5699213D01*
X11733157Y-5722597D01*
X11725680Y-5729232D01*
X11696554Y-5770631D01*
X11686845Y-5820579D01*
X11694539Y-5868939D01*
X11700523Y-5884570D01*
X11728472Y-5927597D01*
X11750837Y-5951981D01*
X11789348Y-5983809D01*
X11831620Y-6016095D01*
X11874436Y-6048045D01*
X11881263Y-6053098D01*
X11920304Y-6082657D01*
X11961818Y-6116775D01*
X12002893Y-6154712D01*
X12036043Y-6190640D01*
X12061270Y-6224556D01*
X12087030Y-6271492D01*
X12103249Y-6318571D01*
X12110070Y-6370523D01*
X12110118Y-6375254D01*
X12104897Y-6428056D01*
X12089235Y-6477287D01*
X12063132Y-6522945D01*
X12026587Y-6565031D01*
X11988324Y-6596437D01*
X11940388Y-6622884D01*
X11887963Y-6639255D01*
X11838410Y-6645316D01*
X11823621Y-6645631D01*
X11773179Y-6641748D01*
X11725441Y-6630098D01*
X11680409Y-6610681D01*
X11656559Y-6596538D01*
X11615427Y-6563531D01*
X11580390Y-6525368D01*
X11550909Y-6485163D01*
X11522527Y-6438601D01*
X11518562Y-6431430D01*
G37*
G36*
X13203593Y-6630000D02*
G01*
X13095150Y-6630000D01*
X12936392Y-6286106D01*
X12500907Y-6286106D01*
X12342882Y-6630000D01*
X12230286Y-6630000D01*
X12435976Y-6192316D01*
X12546336Y-6192316D01*
X12891695Y-6192316D01*
X12719993Y-5824242D01*
X12546336Y-6192316D01*
X12435976Y-6192316D01*
X12707780Y-5613949D01*
X12732449Y-5613949D01*
X13203593Y-6630000D01*
G37*
G36*
X13353803Y-5613949D02*
G01*
X13455408Y-5613949D01*
X13455408Y-6051632D01*
X13969295Y-6051632D01*
X13969295Y-5613949D01*
X14070900Y-5613949D01*
X14070900Y-6630000D01*
X13969295Y-6630000D01*
X13969295Y-6145422D01*
X13455408Y-6145422D01*
X13455408Y-6630000D01*
X13353803Y-6630000D01*
X13353803Y-5613949D01*
G37*
G36*
X14311479Y-5613949D02*
G01*
X14414549Y-5613949D01*
X14414549Y-5995701D01*
X14817794Y-5613949D01*
X14954570Y-5613949D01*
X14469016Y-6067264D01*
X14992428Y-6630000D01*
X14858339Y-6630000D01*
X14414549Y-6140048D01*
X14414549Y-6630000D01*
X14311479Y-6630000D01*
X14311479Y-5613949D01*
G37*
G36*
X15675812Y-5600680D02*
G01*
X15729644Y-5607767D01*
X15781142Y-5619578D01*
X15830303Y-5636114D01*
X15877129Y-5657375D01*
X15921619Y-5683360D01*
X15963774Y-5714070D01*
X16003593Y-5749504D01*
X16039829Y-5788392D01*
X16071233Y-5829463D01*
X16097806Y-5872717D01*
X16119548Y-5918154D01*
X16136458Y-5965773D01*
X16148536Y-6015576D01*
X16155783Y-6067562D01*
X16158199Y-6121730D01*
X16155787Y-6175406D01*
X16148551Y-6227014D01*
X16136492Y-6276553D01*
X16119609Y-6324024D01*
X16097902Y-6369427D01*
X16071371Y-6412761D01*
X16040016Y-6454026D01*
X16003838Y-6493224D01*
X15964251Y-6528944D01*
X15922551Y-6559902D01*
X15878736Y-6586097D01*
X15832807Y-6607529D01*
X15784763Y-6624199D01*
X15734606Y-6636106D01*
X15682334Y-6643250D01*
X15627948Y-6645631D01*
X15572867Y-6643261D01*
X15519977Y-6636151D01*
X15469278Y-6624302D01*
X15420769Y-6607712D01*
X15374450Y-6586383D01*
X15330323Y-6560314D01*
X15288385Y-6529505D01*
X15248639Y-6493956D01*
X15212403Y-6454980D01*
X15180999Y-6414012D01*
X15154426Y-6371052D01*
X15132684Y-6326100D01*
X15115774Y-6279156D01*
X15103696Y-6230220D01*
X15096449Y-6179291D01*
X15094033Y-6126371D01*
X15094044Y-6126127D01*
X15199302Y-6126127D01*
X15202343Y-6180714D01*
X15211466Y-6232582D01*
X15226672Y-6281731D01*
X15247959Y-6328161D01*
X15275329Y-6371872D01*
X15308782Y-6412864D01*
X15323866Y-6428499D01*
X15364114Y-6464032D01*
X15406856Y-6493543D01*
X15452089Y-6517031D01*
X15499816Y-6534497D01*
X15550035Y-6545940D01*
X15602746Y-6551360D01*
X15624528Y-6551842D01*
X15675085Y-6549130D01*
X15723958Y-6540996D01*
X15771149Y-6527438D01*
X15816656Y-6508458D01*
X15841905Y-6495177D01*
X15883600Y-6468388D01*
X15926072Y-6432878D01*
X15963017Y-6392146D01*
X15994437Y-6346194D01*
X15997976Y-6340083D01*
X16019769Y-6295968D01*
X16036210Y-6249750D01*
X16047298Y-6201427D01*
X16053033Y-6151001D01*
X16053907Y-6121242D01*
X16051231Y-6070076D01*
X16043202Y-6021084D01*
X16027471Y-5967755D01*
X16004749Y-5917265D01*
X15997976Y-5905087D01*
X15967140Y-5859139D01*
X15930565Y-5818014D01*
X15888250Y-5781714D01*
X15846516Y-5753908D01*
X15840195Y-5750237D01*
X15795147Y-5727587D01*
X15748906Y-5710500D01*
X15694600Y-5697784D01*
X15645805Y-5692618D01*
X15624528Y-5692107D01*
X15569314Y-5695740D01*
X15515535Y-5706639D01*
X15463191Y-5724805D01*
X15418567Y-5746660D01*
X15412281Y-5750237D01*
X15370467Y-5777597D01*
X15332861Y-5808814D01*
X15295033Y-5849213D01*
X15262702Y-5894650D01*
X15255478Y-5906796D01*
X15233589Y-5950935D01*
X15217076Y-5997224D01*
X15205940Y-6045663D01*
X15200179Y-6096253D01*
X15199302Y-6126127D01*
X15094044Y-6126127D01*
X15096506Y-6073254D01*
X15103925Y-6021613D01*
X15116290Y-5971450D01*
X15133600Y-5922764D01*
X15155857Y-5875554D01*
X15164375Y-5860146D01*
X15192631Y-5815956D01*
X15224459Y-5775527D01*
X15259859Y-5738859D01*
X15298831Y-5705952D01*
X15341375Y-5676806D01*
X15356350Y-5667927D01*
X15402666Y-5644271D01*
X15450391Y-5625509D01*
X15499524Y-5611641D01*
X15550065Y-5602668D01*
X15602014Y-5598590D01*
X15619644Y-5598318D01*
X15675812Y-5600680D01*
G37*
X-8247618Y-2231009D02*
X-8104761Y-2278628D01*
X-8104761Y-2278628D02*
X-8057142Y-2326247D01*
X-8057142Y-2326247D02*
X-8009523Y-2421485D01*
X-8009523Y-2421485D02*
X-8009523Y-2564342D01*
X-8009523Y-2564342D02*
X-8057142Y-2659580D01*
X-8057142Y-2659580D02*
X-8104761Y-2707200D01*
X-8104761Y-2707200D02*
X-8199999Y-2754819D01*
X-8199999Y-2754819D02*
X-8580951Y-2754819D01*
X-8580951Y-2754819D02*
X-8580951Y-1754819D01*
X-8580951Y-1754819D02*
X-8247618Y-1754819D01*
X-8247618Y-1754819D02*
X-8152380Y-1802438D01*
X-8152380Y-1802438D02*
X-8104761Y-1850057D01*
X-8104761Y-1850057D02*
X-8057142Y-1945295D01*
X-8057142Y-1945295D02*
X-8057142Y-2040533D01*
X-8057142Y-2040533D02*
X-8104761Y-2135771D01*
X-8104761Y-2135771D02*
X-8152380Y-2183390D01*
X-8152380Y-2183390D02*
X-8247618Y-2231009D01*
X-8247618Y-2231009D02*
X-8580951Y-2231009D01*
X-7580951Y-2373866D02*
X-6819047Y-2373866D01*
X-7199999Y-2754819D02*
X-7199999Y-1992914D01*
X-4309523Y2840419D02*
X-4357142Y2792800D01*
X-4357142Y2792800D02*
X-4499999Y2745180D01*
X-4499999Y2745180D02*
X-4595237Y2745180D01*
X-4595237Y2745180D02*
X-4738094Y2792800D01*
X-4738094Y2792800D02*
X-4833332Y2888038D01*
X-4833332Y2888038D02*
X-4880951Y2983276D01*
X-4880951Y2983276D02*
X-4928570Y3173752D01*
X-4928570Y3173752D02*
X-4928570Y3316609D01*
X-4928570Y3316609D02*
X-4880951Y3507085D01*
X-4880951Y3507085D02*
X-4833332Y3602323D01*
X-4833332Y3602323D02*
X-4738094Y3697561D01*
X-4738094Y3697561D02*
X-4595237Y3745180D01*
X-4595237Y3745180D02*
X-4499999Y3745180D01*
X-4499999Y3745180D02*
X-4357142Y3697561D01*
X-4357142Y3697561D02*
X-4309523Y3649942D01*
X-3880951Y3126133D02*
X-3119047Y3126133D01*
X-3499999Y2745180D02*
X-3499999Y3507085D01*
X-5557142Y-902438D02*
X-5652380Y-854819D01*
X-5652380Y-854819D02*
X-5795237Y-854819D01*
X-5795237Y-854819D02*
X-5938094Y-902438D01*
X-5938094Y-902438D02*
X-6033332Y-997676D01*
X-6033332Y-997676D02*
X-6080951Y-1092914D01*
X-6080951Y-1092914D02*
X-6128570Y-1283390D01*
X-6128570Y-1283390D02*
X-6128570Y-1426247D01*
X-6128570Y-1426247D02*
X-6080951Y-1616723D01*
X-6080951Y-1616723D02*
X-6033332Y-1711961D01*
X-6033332Y-1711961D02*
X-5938094Y-1807200D01*
X-5938094Y-1807200D02*
X-5795237Y-1854819D01*
X-5795237Y-1854819D02*
X-5699999Y-1854819D01*
X-5699999Y-1854819D02*
X-5557142Y-1807200D01*
X-5557142Y-1807200D02*
X-5509523Y-1759580D01*
X-5509523Y-1759580D02*
X-5509523Y-1426247D01*
X-5509523Y-1426247D02*
X-5699999Y-1426247D01*
X-5080951Y-1473866D02*
X-4319047Y-1473866D01*
X-3347618Y-1431009D02*
X-3204761Y-1478628D01*
X-3204761Y-1478628D02*
X-3157142Y-1526247D01*
X-3157142Y-1526247D02*
X-3109523Y-1621485D01*
X-3109523Y-1621485D02*
X-3109523Y-1764342D01*
X-3109523Y-1764342D02*
X-3157142Y-1859580D01*
X-3157142Y-1859580D02*
X-3204761Y-1907200D01*
X-3204761Y-1907200D02*
X-3299999Y-1954819D01*
X-3299999Y-1954819D02*
X-3680951Y-1954819D01*
X-3680951Y-1954819D02*
X-3680951Y-954819D01*
X-3680951Y-954819D02*
X-3347618Y-954819D01*
X-3347618Y-954819D02*
X-3252380Y-1002438D01*
X-3252380Y-1002438D02*
X-3204761Y-1050057D01*
X-3204761Y-1050057D02*
X-3157142Y-1145295D01*
X-3157142Y-1145295D02*
X-3157142Y-1240533D01*
X-3157142Y-1240533D02*
X-3204761Y-1335771D01*
X-3204761Y-1335771D02*
X-3252380Y-1383390D01*
X-3252380Y-1383390D02*
X-3347618Y-1431009D01*
X-3347618Y-1431009D02*
X-3680951Y-1431009D01*
X-2680951Y-1573866D02*
X-1919047Y-1573866D01*
D11*
%TO.C,R4*%
X-7654724Y9722500D02*
X-7145276Y9722500D01*
X-7654724Y8677500D02*
X-7145276Y8677500D01*
%TO.C,U1*%
X2790000Y7760000D02*
X2790000Y8170000D01*
X2790000Y1190000D02*
X2790000Y1840000D01*
X3440000Y8410000D02*
X3090000Y8410000D01*
X3440000Y1190000D02*
X2790000Y1190000D01*
X9360000Y8410000D02*
X10010000Y8410000D01*
X9360000Y1190000D02*
X10010000Y1190000D01*
X10010000Y8410000D02*
X10010000Y7760000D01*
X10010000Y1190000D02*
X10010000Y1840000D01*
X2790000Y8410000D02*
X2550000Y8740000D01*
X3030000Y8740000D01*
X2790000Y8410000D01*
G36*
X2790000Y8410000D02*
G01*
X2550000Y8740000D01*
X3030000Y8740000D01*
X2790000Y8410000D01*
G37*
%TO.C,B+*%
X-9100000Y-3300000D02*
X-6700000Y-3300000D01*
X-9100000Y-5700000D02*
X-9100000Y-3300000D01*
X-6700000Y-3300000D02*
X-6700000Y-5700000D01*
X-6700000Y-5700000D02*
X-9100000Y-5700000D01*
%TO.C,U5*%
X-2821250Y4443749D02*
X-2021250Y4443749D01*
X-2821250Y4443749D02*
X-3621250Y4443749D01*
X-2821250Y7563749D02*
X-2021250Y7563749D01*
X-2821250Y7563749D02*
X-3621250Y7563749D01*
X-1281250Y4163749D02*
X-1761250Y4163749D01*
X-1521250Y4493749D01*
X-1281250Y4163749D01*
G36*
X-1281250Y4163749D02*
G01*
X-1761250Y4163749D01*
X-1521250Y4493749D01*
X-1281250Y4163749D01*
G37*
%TO.C,C9*%
X9017200Y10021736D02*
X9017200Y9806064D01*
X8297200Y10021736D02*
X8297200Y9806064D01*
%TO.C,R2*%
X7568100Y13154724D02*
X7568100Y12645276D01*
X6523100Y13154724D02*
X6523100Y12645276D01*
%TO.C,E3*%
X-5200000Y2200000D02*
X-2800000Y2200000D01*
X-5200000Y-200000D02*
X-5200000Y2200000D01*
X-2800000Y2200000D02*
X-2800000Y-200000D01*
X-2800000Y-200000D02*
X-5200000Y-200000D01*
%TO.C,E7*%
X15100000Y600000D02*
G75*
G02*
X13700000Y600000I-700000J0D01*
G01*
X13700000Y600000D02*
G75*
G02*
X15100000Y600000I700000J0D01*
G01*
D12*
%TO.C,R10*%
X8250000Y-1710000D02*
G75*
G02*
X8150000Y-1710000I-50000J0D01*
G01*
X8150000Y-1710000D02*
G75*
G02*
X8250000Y-1710000I50000J0D01*
G01*
D11*
%TO.C,R1*%
X9128100Y13442224D02*
X9128100Y12932776D01*
X8083100Y13442224D02*
X8083100Y12932776D01*
%TO.C,U2*%
X-1460000Y300000D02*
X-1460000Y-500000D01*
X-1460000Y300000D02*
X-1460000Y1100000D01*
X1660000Y300000D02*
X1660000Y-500000D01*
X1660000Y300000D02*
X1660000Y1100000D01*
X-1410000Y-1000000D02*
X-1740000Y-1240000D01*
X-1740000Y-760000D01*
X-1410000Y-1000000D01*
G36*
X-1410000Y-1000000D02*
G01*
X-1740000Y-1240000D01*
X-1740000Y-760000D01*
X-1410000Y-1000000D01*
G37*
%TO.C,R8*%
X1880000Y11567621D02*
X1880000Y11232379D01*
X1120000Y11567621D02*
X1120000Y11232379D01*
%TO.C,C8*%
X9313200Y9806064D02*
X9313200Y10021736D01*
X10033200Y9806064D02*
X10033200Y10021736D01*
%TO.C,E11*%
X12300000Y-4200000D02*
G75*
G02*
X10900000Y-4200000I-700000J0D01*
G01*
X10900000Y-4200000D02*
G75*
G02*
X12300000Y-4200000I700000J0D01*
G01*
%TO.C,E8*%
X12900000Y200000D02*
G75*
G02*
X11500000Y200000I-700000J0D01*
G01*
X11500000Y200000D02*
G75*
G02*
X12900000Y200000I700000J0D01*
G01*
%TO.C,E6*%
X14500000Y2600000D02*
G75*
G02*
X13100000Y2600000I-700000J0D01*
G01*
X13100000Y2600000D02*
G75*
G02*
X14500000Y2600000I700000J0D01*
G01*
%TO.C,R7*%
X767621Y12920000D02*
X432379Y12920000D01*
X767621Y13680000D02*
X432379Y13680000D01*
%TO.C,E10*%
X10300000Y-1000000D02*
G75*
G02*
X8900000Y-1000000I-700000J0D01*
G01*
X8900000Y-1000000D02*
G75*
G02*
X10300000Y-1000000I700000J0D01*
G01*
%TO.C,G-*%
X-6000000Y-2700000D02*
X-3600000Y-2700000D01*
X-6000000Y-5100000D02*
X-6000000Y-2700000D01*
X-3600000Y-2700000D02*
X-3600000Y-5100000D01*
X-3600000Y-5100000D02*
X-6000000Y-5100000D01*
%TO.C,B-1*%
X-2900000Y-2400000D02*
X-500000Y-2400000D01*
X-2900000Y-4800000D02*
X-2900000Y-2400000D01*
X-500000Y-2400000D02*
X-500000Y-4800000D01*
X-500000Y-4800000D02*
X-2900000Y-4800000D01*
%TO.C,R3*%
X-2605276Y8197501D02*
X-3114724Y8197501D01*
X-2605276Y9242501D02*
X-3114724Y9242501D01*
%TO.C,E12*%
X10100000Y-4800000D02*
G75*
G02*
X8700000Y-4800000I-700000J0D01*
G01*
X8700000Y-4800000D02*
G75*
G02*
X10100000Y-4800000I700000J0D01*
G01*
%TO.C,R9*%
X-4832379Y13820000D02*
X-5167621Y13820000D01*
X-4832379Y14580000D02*
X-5167621Y14580000D01*
%TO.C,R6*%
X5180721Y-1502500D02*
X4845479Y-1502500D01*
X5180721Y-742500D02*
X4845479Y-742500D01*
%TO.C,E9*%
X12300000Y-2000000D02*
G75*
G02*
X10900000Y-2000000I-700000J0D01*
G01*
X10900000Y-2000000D02*
G75*
G02*
X12300000Y-2000000I700000J0D01*
G01*
%TO.C,U4*%
X-2900000Y9740000D02*
X-2100000Y9740000D01*
X-2900000Y9740000D02*
X-3700000Y9740000D01*
X-2900000Y12860000D02*
X-2100000Y12860000D01*
X-2900000Y12860000D02*
X-3700000Y12860000D01*
X-1360000Y9460000D02*
X-1840000Y9460000D01*
X-1600000Y9790000D01*
X-1360000Y9460000D01*
G36*
X-1360000Y9460000D02*
G01*
X-1840000Y9460000D01*
X-1600000Y9790000D01*
X-1360000Y9460000D01*
G37*
%TO.C,U7*%
X2255600Y9837500D02*
X2005600Y9587500D01*
X2255600Y9837500D02*
X4255600Y9837500D01*
X4255600Y12837500D01*
X2255600Y12837500D01*
X2255600Y9837500D01*
%TO.C,Y2*%
X1395600Y-1692500D02*
X5295600Y-1692500D01*
X1395600Y-1792500D02*
X1395600Y-1692500D01*
X1395600Y-5292500D02*
X1395600Y-1792500D01*
X5795600Y-5292500D02*
X1395600Y-5292500D01*
X5795600Y-5292500D02*
X5795600Y-2192500D01*
D13*
X5659100Y-1892500D02*
G75*
G02*
X5532100Y-1892500I-63500J0D01*
G01*
X5532100Y-1892500D02*
G75*
G02*
X5659100Y-1892500I63500J0D01*
G01*
%TD*%
M02*
