M48
; DRILL file {KiCad 8.0.7} date 2026-01-13T16:28:01+0000
; FORMAT={-:-/ absolute / inch / decimal}
; #@! TF.CreationDate,2026-01-13T16:28:01+00:00
; #@! TF.GenerationSoftware,Kicad,Pcbnew,8.0.7
; #@! TF.FileFunction,Plated,1,2,PTH
FMAT,2
INCH
; #@! TA.AperFunction,Plated,PTH,ViaDrill
T1C0.0118
; #@! TA.AperFunction,Plated,PTH,ComponentDrill
T2C0.0157
; #@! TA.AperFunction,Plated,PTH,ComponentDrill
T3C0.0236
%
G90
G05
T1
X-0.2441Y0.0039
X-0.2362Y0.3937
X-0.2008Y-0.0748
X-0.1339Y0.5591
X-0.0866Y-0.0709
X-0.0432Y0.3429
X-0.0338Y0.4453
X-0.0305Y0.2364
X-0.0039Y0.1575
X0.0039Y0.1027
X0.0039Y-0.0791
X0.0039Y-0.1142
X0.0062Y0.3156
X0.0276Y0.5799
X0.0433Y0.185
X0.0433Y0.1024
X0.0509Y0.2208
X0.0591Y0.5591
X0.0787Y0.5276
X0.0866Y0.3465
X0.0866Y0.0079
X0.1581Y0.4239
X0.2073Y0.231
X0.2073Y0.1916
X0.2073Y0.1523
X0.2362Y0.5551
X0.2396Y0.4331
X0.2447Y0.294
X0.2467Y0.231
X0.2467Y0.1523
X0.2695Y0.4331
X0.2699Y-0.0631
X0.2734Y-0.1517
X0.286Y0.231
X0.286Y0.1916
X0.286Y0.1523
X0.2913Y-0.0866
X0.3014Y-0.056
X0.311Y0.5827
X0.3221Y0.2943
X0.3408Y0.4323
X0.3524Y0.2454
X0.3526Y0.1712
X0.3531Y0.1265
X0.3808Y0.4323
X0.4528Y0.2638
X0.4968Y0.3003
X0.5108Y0.1503
X0.5433Y0.2323
T2
X-0.1175Y0.6766
X-0.1175Y0.6234
X-0.0841Y0.6766
X-0.0841Y0.6234
X-0.0506Y0.6766
X-0.0506Y0.6234
X-0.0171Y0.6766
X-0.0171Y0.6234
X0.0163Y0.6766
X0.0163Y0.6234
X0.0498Y0.6766
X0.0498Y0.6234
X0.0833Y0.6766
X0.0833Y0.6234
X0.1167Y0.6766
X0.1167Y0.6234
T3
G00X-0.1707Y0.8108
M15
G01X-0.1707Y0.7793
M16
G05
G00X-0.1707Y0.6915
M15
G01X-0.1707Y0.6325
M16
G05
G00X0.1699Y0.8108
M15
G01X0.1699Y0.7793
M16
G05
G00X0.1699Y0.6915
M15
G01X0.1699Y0.6325
M16
G05
M30
