%TF.GenerationSoftware,KiCad,Pcbnew,8.0.7*%
%TF.CreationDate,2026-01-13T16:27:58+00:00*%
%TF.ProjectId,analclock v1,616e616c-636c-46f6-936b-2076312e6b69,rev?*%
%TF.SameCoordinates,Original*%
%TF.FileFunction,Copper,L1,Top*%
%TF.FilePolarity,Positive*%
%FSLAX46Y46*%
G04 Gerber Fmt 4.6, Leading zero omitted, Abs format (unit mm)*
G04 Created by KiCad (PCBNEW 8.0.7) date 2026-01-13 16:27:58*
%MOMM*%
%LPD*%
G01*
G04 APERTURE LIST*
G04 Aperture macros list*
%AMRoundRect*
0 Rectangle with rounded corners*
0 $1 Rounding radius*
0 $2 $3 $4 $5 $6 $7 $8 $9 X,Y pos of 4 corners*
0 Add a 4 corners polygon primitive as box body*
4,1,4,$2,$3,$4,$5,$6,$7,$8,$9,$2,$3,0*
0 Add four circle primitives for the rounded corners*
1,1,$1+$1,$2,$3*
1,1,$1+$1,$4,$5*
1,1,$1+$1,$6,$7*
1,1,$1+$1,$8,$9*
0 Add four rect primitives between the rounded corners*
20,1,$1+$1,$2,$3,$4,$5,0*
20,1,$1+$1,$4,$5,$6,$7,0*
20,1,$1+$1,$6,$7,$8,$9,0*
20,1,$1+$1,$8,$9,$2,$3,0*%
%AMRotRect*
0 Rectangle, with rotation*
0 The origin of the aperture is its center*
0 $1 length*
0 $2 width*
0 $3 Rotation angle, in degrees counterclockwise*
0 Add horizontal line*
21,1,$1,$2,0,0,$3*%
G04 Aperture macros list end*
%TA.AperFunction,SMDPad,CuDef*%
%ADD10R,1.524000X1.524000*%
%TD*%
%TA.AperFunction,SMDPad,CuDef*%
%ADD11RotRect,1.524000X1.524000X330.000000*%
%TD*%
%TA.AperFunction,SMDPad,CuDef*%
%ADD12RotRect,1.524000X1.524000X120.000000*%
%TD*%
%TA.AperFunction,SMDPad,CuDef*%
%ADD13RoundRect,0.237500X-0.250000X-0.237500X0.250000X-0.237500X0.250000X0.237500X-0.250000X0.237500X0*%
%TD*%
%TA.AperFunction,SMDPad,CuDef*%
%ADD14RoundRect,0.050000X-0.387500X-0.050000X0.387500X-0.050000X0.387500X0.050000X-0.387500X0.050000X0*%
%TD*%
%TA.AperFunction,SMDPad,CuDef*%
%ADD15RoundRect,0.050000X-0.050000X-0.387500X0.050000X-0.387500X0.050000X0.387500X-0.050000X0.387500X0*%
%TD*%
%TA.AperFunction,HeatsinkPad*%
%ADD16R,3.200000X3.200000*%
%TD*%
%TA.AperFunction,SMDPad,CuDef*%
%ADD17R,2.000000X2.000000*%
%TD*%
%TA.AperFunction,SMDPad,CuDef*%
%ADD18RoundRect,0.100000X-0.217500X-0.100000X0.217500X-0.100000X0.217500X0.100000X-0.217500X0.100000X0*%
%TD*%
%TA.AperFunction,SMDPad,CuDef*%
%ADD19RoundRect,0.150000X0.512500X0.150000X-0.512500X0.150000X-0.512500X-0.150000X0.512500X-0.150000X0*%
%TD*%
%TA.AperFunction,SMDPad,CuDef*%
%ADD20RoundRect,0.140000X-0.170000X0.140000X-0.170000X-0.140000X0.170000X-0.140000X0.170000X0.140000X0*%
%TD*%
%TA.AperFunction,SMDPad,CuDef*%
%ADD21RoundRect,0.237500X-0.237500X0.250000X-0.237500X-0.250000X0.237500X-0.250000X0.237500X0.250000X0*%
%TD*%
%TA.AperFunction,SMDPad,CuDef*%
%ADD22C,1.000000*%
%TD*%
%TA.AperFunction,SMDPad,CuDef*%
%ADD23RoundRect,0.100000X0.100000X-0.217500X0.100000X0.217500X-0.100000X0.217500X-0.100000X-0.217500X0*%
%TD*%
%TA.AperFunction,SMDPad,CuDef*%
%ADD24RoundRect,0.147500X-0.172500X0.147500X-0.172500X-0.147500X0.172500X-0.147500X0.172500X0.147500X0*%
%TD*%
%TA.AperFunction,SMDPad,CuDef*%
%ADD25RoundRect,0.150000X0.150000X-0.512500X0.150000X0.512500X-0.150000X0.512500X-0.150000X-0.512500X0*%
%TD*%
%TA.AperFunction,SMDPad,CuDef*%
%ADD26RoundRect,0.100000X0.217500X0.100000X-0.217500X0.100000X-0.217500X-0.100000X0.217500X-0.100000X0*%
%TD*%
%TA.AperFunction,SMDPad,CuDef*%
%ADD27RoundRect,0.160000X-0.160000X0.197500X-0.160000X-0.197500X0.160000X-0.197500X0.160000X0.197500X0*%
%TD*%
%TA.AperFunction,SMDPad,CuDef*%
%ADD28RoundRect,0.140000X0.170000X-0.140000X0.170000X0.140000X-0.170000X0.140000X-0.170000X-0.140000X0*%
%TD*%
%TA.AperFunction,SMDPad,CuDef*%
%ADD29RoundRect,0.100000X-0.100000X0.217500X-0.100000X-0.217500X0.100000X-0.217500X0.100000X0.217500X0*%
%TD*%
%TA.AperFunction,SMDPad,CuDef*%
%ADD30RoundRect,0.160000X0.197500X0.160000X-0.197500X0.160000X-0.197500X-0.160000X0.197500X-0.160000X0*%
%TD*%
%TA.AperFunction,SMDPad,CuDef*%
%ADD31RoundRect,0.237500X0.250000X0.237500X-0.250000X0.237500X-0.250000X-0.237500X0.250000X-0.237500X0*%
%TD*%
%TA.AperFunction,ComponentPad*%
%ADD32C,0.700000*%
%TD*%
%TA.AperFunction,ComponentPad*%
%ADD33O,0.900000X2.400000*%
%TD*%
%TA.AperFunction,ComponentPad*%
%ADD34O,0.900000X1.700000*%
%TD*%
%TA.AperFunction,SMDPad,CuDef*%
%ADD35R,0.250000X0.450000*%
%TD*%
%TA.AperFunction,SMDPad,CuDef*%
%ADD36RoundRect,0.250000X0.450000X0.350000X-0.450000X0.350000X-0.450000X-0.350000X0.450000X-0.350000X0*%
%TD*%
%TA.AperFunction,SMDPad,CuDef*%
%ADD37R,1.000000X1.250000*%
%TD*%
%TA.AperFunction,ViaPad*%
%ADD38C,0.500000*%
%TD*%
%TA.AperFunction,Conductor*%
%ADD39C,0.200000*%
%TD*%
%TA.AperFunction,Conductor*%
%ADD40C,0.150000*%
%TD*%
%TA.AperFunction,Conductor*%
%ADD41C,0.400000*%
%TD*%
%TA.AperFunction,Conductor*%
%ADD42C,0.300000*%
%TD*%
G04 APERTURE END LIST*
D10*
%TO.P,SW3,1,1*%
%TO.N,+3V3*%
X16600000Y2540000D03*
%TO.P,SW3,2,2*%
%TO.N,/BUT_LOW*%
X16600000Y-2540000D03*
%TD*%
D11*
%TO.P,SW4,1,1*%
%TO.N,+3V3*%
X6200295Y15670000D03*
%TO.P,SW4,2,2*%
%TO.N,/BUT_TOP*%
X10599705Y13130000D03*
%TD*%
D12*
%TO.P,SW1,1,1*%
%TO.N,+3V3*%
X15670000Y6100295D03*
%TO.P,SW1,2,2*%
%TO.N,/BUT_MID*%
X13130000Y10499705D03*
%TD*%
D13*
%TO.P,R4,1*%
%TO.N,Net-(R4-Pad1)*%
X-8312500Y9200000D03*
%TO.P,R4,2*%
%TO.N,/QSPI_SS*%
X-6487500Y9200000D03*
%TD*%
D14*
%TO.P,U1,1,IOVDD*%
%TO.N,+3V3*%
X2962500Y7400000D03*
%TO.P,U1,2,GPIO0*%
%TO.N,/CHRG_IND*%
X2962500Y7000000D03*
%TO.P,U1,3,GPIO1*%
%TO.N,/MAG_INT*%
X2962500Y6600000D03*
%TO.P,U1,4,GPIO2*%
%TO.N,/I2C_SDA1*%
X2962500Y6200000D03*
%TO.P,U1,5,GPIO3*%
%TO.N,/I2C_SCK1*%
X2962500Y5800000D03*
%TO.P,U1,6,GPIO4*%
%TO.N,unconnected-(U1-GPIO4-Pad6)*%
X2962500Y5400000D03*
%TO.P,U1,7,GPIO5*%
%TO.N,unconnected-(U1-GPIO5-Pad7)*%
X2962500Y5000000D03*
%TO.P,U1,8,GPIO6*%
%TO.N,unconnected-(U1-GPIO6-Pad8)*%
X2962500Y4600000D03*
%TO.P,U1,9,GPIO7*%
%TO.N,unconnected-(U1-GPIO7-Pad9)*%
X2962500Y4200000D03*
%TO.P,U1,10,IOVDD*%
%TO.N,+3V3*%
X2962500Y3800000D03*
%TO.P,U1,11,GPIO8*%
%TO.N,unconnected-(U1-GPIO8-Pad11)*%
X2962500Y3400000D03*
%TO.P,U1,12,GPIO9*%
%TO.N,unconnected-(U1-GPIO9-Pad12)*%
X2962500Y3000000D03*
%TO.P,U1,13,GPIO10*%
%TO.N,unconnected-(U1-GPIO10-Pad13)*%
X2962500Y2600000D03*
%TO.P,U1,14,GPIO11*%
%TO.N,unconnected-(U1-GPIO11-Pad14)*%
X2962500Y2200000D03*
D15*
%TO.P,U1,15,GPIO12*%
%TO.N,unconnected-(U1-GPIO12-Pad15)*%
X3800000Y1362500D03*
%TO.P,U1,16,GPIO13*%
%TO.N,unconnected-(U1-GPIO13-Pad16)*%
X4200000Y1362500D03*
%TO.P,U1,17,GPIO14*%
%TO.N,unconnected-(U1-GPIO14-Pad17)*%
X4600000Y1362500D03*
%TO.P,U1,18,GPIO15*%
%TO.N,unconnected-(U1-GPIO15-Pad18)*%
X5000000Y1362500D03*
%TO.P,U1,19,TESTEN*%
%TO.N,GND*%
X5400000Y1362500D03*
%TO.P,U1,20,XIN*%
%TO.N,Net-(U1-XIN)*%
X5800000Y1362500D03*
%TO.P,U1,21,XOUT*%
%TO.N,Net-(U1-XOUT)*%
X6200000Y1362500D03*
%TO.P,U1,22,IOVDD*%
%TO.N,+3V3*%
X6600000Y1362500D03*
%TO.P,U1,23,DVDD*%
%TO.N,+1V1*%
X7000000Y1362500D03*
%TO.P,U1,24,SWCLK*%
%TO.N,unconnected-(U1-SWCLK-Pad24)*%
X7400000Y1362500D03*
%TO.P,U1,25,SWD*%
%TO.N,unconnected-(U1-SWD-Pad25)*%
X7800000Y1362500D03*
%TO.P,U1,26,RUN*%
%TO.N,Net-(E12-Pin_1)*%
X8200000Y1362500D03*
%TO.P,U1,27,GPIO16*%
%TO.N,Net-(E11-Pin_1)*%
X8600000Y1362500D03*
%TO.P,U1,28,GPIO17*%
%TO.N,Net-(E10-Pin_1)*%
X9000000Y1362500D03*
D14*
%TO.P,U1,29,GPIO18*%
%TO.N,Net-(E9-Pin_1)*%
X9837500Y2200000D03*
%TO.P,U1,30,GPIO19*%
%TO.N,Net-(E8-Pin_1)*%
X9837500Y2600000D03*
%TO.P,U1,31,GPIO20*%
%TO.N,Net-(E7-Pin_1)*%
X9837500Y3000000D03*
%TO.P,U1,32,GPIO21*%
%TO.N,Net-(E6-Pin_1)*%
X9837500Y3400000D03*
%TO.P,U1,33,IOVDD*%
%TO.N,+3V3*%
X9837500Y3800000D03*
%TO.P,U1,34,GPIO22*%
%TO.N,unconnected-(U1-GPIO22-Pad34)*%
X9837500Y4200000D03*
%TO.P,U1,35,GPIO23*%
%TO.N,/BUT_LOW*%
X9837500Y4600000D03*
%TO.P,U1,36,GPIO24*%
%TO.N,/BUT_MID*%
X9837500Y5000000D03*
%TO.P,U1,37,GPIO25*%
%TO.N,/BUT_TOP*%
X9837500Y5400000D03*
%TO.P,U1,38,GPIO26_ADC0*%
%TO.N,/ADC0*%
X9837500Y5800000D03*
%TO.P,U1,39,GPIO27_ADC1*%
%TO.N,/ADC1*%
X9837500Y6200000D03*
%TO.P,U1,40,GPIO28_ADC2*%
%TO.N,unconnected-(U1-GPIO28_ADC2-Pad40)*%
X9837500Y6600000D03*
%TO.P,U1,41,GPIO29_ADC3*%
%TO.N,unconnected-(U1-GPIO29_ADC3-Pad41)*%
X9837500Y7000000D03*
%TO.P,U1,42,IOVDD*%
%TO.N,+3V3*%
X9837500Y7400000D03*
D15*
%TO.P,U1,43,ADC_AVDD*%
X9000000Y8237500D03*
%TO.P,U1,44,VREG_IN*%
X8600000Y8237500D03*
%TO.P,U1,45,VREG_VOUT*%
%TO.N,+1V1*%
X8200000Y8237500D03*
%TO.P,U1,46,USB_DM*%
%TO.N,Net-(U1-USB_DM)*%
X7800000Y8237500D03*
%TO.P,U1,47,USB_DP*%
%TO.N,Net-(U1-USB_DP)*%
X7400000Y8237500D03*
%TO.P,U1,48,USB_VDD*%
%TO.N,+3V3*%
X7000000Y8237500D03*
%TO.P,U1,49,IOVDD*%
X6600000Y8237500D03*
%TO.P,U1,50,DVDD*%
%TO.N,+1V1*%
X6200000Y8237500D03*
%TO.P,U1,51,QSPI_SD3*%
%TO.N,/QSPI_SD3*%
X5800000Y8237500D03*
%TO.P,U1,52,QSPI_SCLK*%
%TO.N,/QSPI_SCLK*%
X5400000Y8237500D03*
%TO.P,U1,53,QSPI_SD0*%
%TO.N,/QSPI_SD0*%
X5000000Y8237500D03*
%TO.P,U1,54,QSPI_SD2*%
%TO.N,/QSPI_SD2*%
X4600000Y8237500D03*
%TO.P,U1,55,QSPI_SD1*%
%TO.N,/QSPI_SD1*%
X4200000Y8237500D03*
%TO.P,U1,56,QSPI_SS*%
%TO.N,/QSPI_SS*%
X3800000Y8237500D03*
D16*
%TO.P,U1,57,GND*%
%TO.N,GND*%
X6400000Y4800000D03*
%TD*%
D17*
%TO.P,B+,1,Pin_1*%
%TO.N,+BATT*%
X-7900000Y-4500000D03*
%TD*%
D18*
%TO.P,C3,1*%
%TO.N,+3V3*%
X11145300Y7627900D03*
%TO.P,C3,2*%
%TO.N,GND*%
X11960300Y7627900D03*
%TD*%
D19*
%TO.P,U5,1,VIN*%
%TO.N,+BATT*%
X-1683750Y5053749D03*
%TO.P,U5,2,GND*%
%TO.N,GND*%
X-1683750Y6003749D03*
%TO.P,U5,3,EN*%
%TO.N,+BATT*%
X-1683750Y6953749D03*
%TO.P,U5,4*%
%TO.N,N/C*%
X-3958750Y6953749D03*
%TO.P,U5,5,VOUT*%
%TO.N,+3V3*%
X-3958750Y5053749D03*
%TD*%
D20*
%TO.P,C9,1*%
%TO.N,GND*%
X8657200Y10393900D03*
%TO.P,C9,2*%
%TO.N,+1V1*%
X8657200Y9433900D03*
%TD*%
D21*
%TO.P,R2,1*%
%TO.N,/usb_dp*%
X7045600Y13812500D03*
%TO.P,R2,2*%
%TO.N,Net-(U1-USB_DP)*%
X7045600Y11987500D03*
%TD*%
D17*
%TO.P,E3,1,Pin_1*%
%TO.N,Net-(E3-Pin_1)*%
X-4000000Y1000000D03*
%TD*%
D22*
%TO.P,E7,1,Pin_1*%
%TO.N,Net-(E7-Pin_1)*%
X14400000Y600000D03*
%TD*%
D23*
%TO.P,C15,1*%
%TO.N,GND*%
X7655600Y-730000D03*
%TO.P,C15,2*%
%TO.N,+1V1*%
X7655600Y85000D03*
%TD*%
D24*
%TO.P,R10,1*%
%TO.N,Net-(E12-Pin_1)*%
X8200000Y-2315000D03*
%TO.P,R10,2*%
%TO.N,+3V3*%
X8200000Y-3285000D03*
%TD*%
D21*
%TO.P,R1,1*%
%TO.N,/usb_dm*%
X8605600Y14100000D03*
%TO.P,R1,2*%
%TO.N,Net-(U1-USB_DM)*%
X8605600Y12275000D03*
%TD*%
D25*
%TO.P,U2,1,VOUT*%
%TO.N,Net-(E3-Pin_1)*%
X-850000Y-837500D03*
%TO.P,U2,2,VSS*%
%TO.N,GND*%
X100000Y-837500D03*
%TO.P,U2,3,VDD*%
%TO.N,+3V3*%
X1050000Y-837500D03*
%TO.P,U2,4,SDA*%
%TO.N,/I2C_SDA1*%
X1050000Y1437500D03*
%TO.P,U2,5,SCL*%
%TO.N,/I2C_SCK1*%
X100000Y1437500D03*
%TO.P,U2,6,VREF*%
%TO.N,unconnected-(U2-VREF-Pad6)*%
X-850000Y1437500D03*
%TD*%
D26*
%TO.P,C14,1*%
%TO.N,+3V3*%
X1495500Y3817900D03*
%TO.P,C14,2*%
%TO.N,GND*%
X680500Y3817900D03*
%TD*%
D27*
%TO.P,R8,1*%
%TO.N,+3V3*%
X1500000Y11997500D03*
%TO.P,R8,2*%
%TO.N,/CHRG_IND*%
X1500000Y10802500D03*
%TD*%
D28*
%TO.P,C8,1*%
%TO.N,+3V3*%
X9673200Y9433900D03*
%TO.P,C8,2*%
%TO.N,GND*%
X9673200Y10393900D03*
%TD*%
D22*
%TO.P,E11,1,Pin_1*%
%TO.N,Net-(E11-Pin_1)*%
X11600000Y-4200000D03*
%TD*%
%TO.P,E8,1,Pin_1*%
%TO.N,Net-(E8-Pin_1)*%
X12200000Y200000D03*
%TD*%
%TO.P,E6,1,Pin_1*%
%TO.N,Net-(E6-Pin_1)*%
X13800000Y2600000D03*
%TD*%
D29*
%TO.P,C13,1*%
%TO.N,GND*%
X6100000Y10407500D03*
%TO.P,C13,2*%
%TO.N,+1V1*%
X6100000Y9592500D03*
%TD*%
%TO.P,C5,1*%
%TO.N,+3V3*%
X6855600Y-47500D03*
%TO.P,C5,2*%
%TO.N,GND*%
X6855600Y-862500D03*
%TD*%
%TO.P,C1,1*%
%TO.N,GND*%
X818400Y-2953000D03*
%TO.P,C1,2*%
%TO.N,Net-(U1-XIN)*%
X818400Y-3768000D03*
%TD*%
D26*
%TO.P,C4,1*%
%TO.N,+3V3*%
X1630600Y8017500D03*
%TO.P,C4,2*%
%TO.N,GND*%
X815600Y8017500D03*
%TD*%
D30*
%TO.P,R7,1*%
%TO.N,GND*%
X1197500Y13300000D03*
%TO.P,R7,2*%
%TO.N,Net-(J1-CC1)*%
X2500Y13300000D03*
%TD*%
D23*
%TO.P,C2,1*%
%TO.N,GND*%
X6428400Y-3848000D03*
%TO.P,C2,2*%
%TO.N,Net-(C2-Pad2)*%
X6428400Y-3033000D03*
%TD*%
D18*
%TO.P,C6,1*%
%TO.N,+3V3*%
X11551700Y3817900D03*
%TO.P,C6,2*%
%TO.N,GND*%
X12366700Y3817900D03*
%TD*%
D22*
%TO.P,E10,1,Pin_1*%
%TO.N,Net-(E10-Pin_1)*%
X9600000Y-1000000D03*
%TD*%
D17*
%TO.P,G-,1,Pin_1*%
%TO.N,GND*%
X-4800000Y-3900000D03*
%TD*%
%TO.P,B-1,1,Pin_1*%
%TO.N,GND*%
X-1700000Y-3600000D03*
%TD*%
D31*
%TO.P,R3,1*%
%TO.N,GND*%
X-1947500Y8720001D03*
%TO.P,R3,2*%
%TO.N,Net-(U4-PROG)*%
X-3772500Y8720001D03*
%TD*%
D22*
%TO.P,E12,1,Pin_1*%
%TO.N,Net-(E12-Pin_1)*%
X9400000Y-4800000D03*
%TD*%
D30*
%TO.P,R9,1*%
%TO.N,GND*%
X-4402500Y14200000D03*
%TO.P,R9,2*%
%TO.N,Net-(J1-CC2)*%
X-5597500Y14200000D03*
%TD*%
%TO.P,R6,1*%
%TO.N,Net-(C2-Pad2)*%
X5610600Y-1122500D03*
%TO.P,R6,2*%
%TO.N,Net-(U1-XOUT)*%
X4415600Y-1122500D03*
%TD*%
D22*
%TO.P,E9,1,Pin_1*%
%TO.N,Net-(E9-Pin_1)*%
X11600000Y-2000000D03*
%TD*%
D19*
%TO.P,U4,1,CHRG*%
%TO.N,/CHRG_IND*%
X-1762500Y10350000D03*
%TO.P,U4,2,GND*%
%TO.N,GND*%
X-1762500Y11300000D03*
%TO.P,U4,3,BAT*%
%TO.N,+BATT*%
X-1762500Y12250000D03*
%TO.P,U4,4,VCC*%
%TO.N,+5V*%
X-4037500Y12250000D03*
%TO.P,U4,5,PROG*%
%TO.N,Net-(U4-PROG)*%
X-4037500Y10350000D03*
%TD*%
D23*
%TO.P,C7,1*%
%TO.N,+3V3*%
X6845600Y9592500D03*
%TO.P,C7,2*%
%TO.N,GND*%
X6845600Y10407500D03*
%TD*%
D32*
%TO.P,J1,A1,GND*%
%TO.N,GND*%
X-2985000Y15835000D03*
%TO.P,J1,A4,VBUS*%
%TO.N,+5V*%
X-2135000Y15835000D03*
%TO.P,J1,A5,CC1*%
%TO.N,Net-(J1-CC1)*%
X-1285000Y15835000D03*
%TO.P,J1,A6,D+*%
%TO.N,/usb_dp*%
X-435000Y15835000D03*
%TO.P,J1,A7,D-*%
%TO.N,/usb_dm*%
X415000Y15835000D03*
%TO.P,J1,A8,SBU1*%
%TO.N,unconnected-(J1-SBU1-PadA8)*%
X1265000Y15835000D03*
%TO.P,J1,A9,VBUS*%
%TO.N,+5V*%
X2115000Y15835000D03*
%TO.P,J1,A12,GND*%
%TO.N,GND*%
X2965000Y15835000D03*
%TO.P,J1,B1,GND*%
X2965000Y17185000D03*
%TO.P,J1,B4,VBUS*%
%TO.N,+5V*%
X2115000Y17185000D03*
%TO.P,J1,B5,CC2*%
%TO.N,Net-(J1-CC2)*%
X1265000Y17185000D03*
%TO.P,J1,B6,D+*%
%TO.N,/usb_dp*%
X415000Y17185000D03*
%TO.P,J1,B7,D-*%
%TO.N,/usb_dm*%
X-435000Y17185000D03*
%TO.P,J1,B8,SBU2*%
%TO.N,unconnected-(J1-SBU2-PadB8)*%
X-1285000Y17185000D03*
%TO.P,J1,B9,VBUS*%
%TO.N,+5V*%
X-2135000Y17185000D03*
%TO.P,J1,B12,GND*%
%TO.N,GND*%
X-2985000Y17185000D03*
D33*
%TO.P,J1,S1,SHIELD*%
X-4335000Y16815000D03*
D34*
X-4335000Y20195000D03*
D33*
X4315000Y16815000D03*
D34*
X4315000Y20195000D03*
%TD*%
D35*
%TO.P,U7,1,~{CS}*%
%TO.N,/QSPI_SS*%
X2505600Y10087500D03*
%TO.P,U7,2,DO(IO1)*%
%TO.N,/QSPI_SD1*%
X3005600Y10087500D03*
%TO.P,U7,3,IO2*%
%TO.N,/QSPI_SD2*%
X3505600Y10087500D03*
%TO.P,U7,4,GND*%
%TO.N,GND*%
X4005600Y10087500D03*
%TO.P,U7,5,DI(IO0)*%
%TO.N,/QSPI_SD0*%
X4005600Y12587500D03*
%TO.P,U7,6,CLK*%
%TO.N,/QSPI_SCLK*%
X3505600Y12587500D03*
%TO.P,U7,7,IO3*%
%TO.N,/QSPI_SD3*%
X3005600Y12587500D03*
%TO.P,U7,8,VCC*%
%TO.N,+3V3*%
X2505600Y12587500D03*
%TD*%
D36*
%TO.P,Y2,1,1*%
%TO.N,Net-(C2-Pad2)*%
X4695600Y-2642500D03*
%TO.P,Y2,2,2*%
%TO.N,GND*%
X2495600Y-2642500D03*
%TO.P,Y2,3,3*%
%TO.N,Net-(U1-XIN)*%
X2495600Y-4342500D03*
%TO.P,Y2,4,4*%
%TO.N,GND*%
X4695600Y-4342500D03*
%TD*%
D37*
%TO.P,SW2,1,1*%
%TO.N,Net-(R4-Pad1)*%
X-7500000Y7900000D03*
%TO.P,SW2,2,2*%
%TO.N,GND*%
X-7500000Y150000D03*
%TD*%
D38*
%TO.N,/usb_dm*%
X700000Y14730000D03*
X7900000Y14800000D03*
%TO.N,/usb_dp*%
X1500000Y14200000D03*
X6000000Y14100000D03*
%TO.N,+3V3*%
X11500000Y6700000D03*
X13800000Y5900000D03*
%TO.N,/QSPI_SS*%
X-6000000Y10000000D03*
X2200000Y8800000D03*
%TO.N,GND*%
X100000Y-2010000D03*
X6845600Y11000000D03*
X100000Y-2900000D03*
X12975200Y3817900D03*
X-773750Y6003749D03*
X7655600Y-1422500D03*
X5265600Y5867500D03*
X-6200000Y100000D03*
X7265600Y5867500D03*
X156300Y8017500D03*
X7265600Y4867500D03*
X5265600Y4867500D03*
X5265600Y3867500D03*
X6265600Y5867500D03*
X-2200000Y-1800000D03*
X2000000Y13400000D03*
X6945600Y-3852500D03*
X-3400000Y14200000D03*
X-1097500Y8710001D03*
X12619600Y7627900D03*
X6855600Y-1602500D03*
X8657200Y10980700D03*
X-857500Y11310001D03*
X6085600Y11000000D03*
X-100000Y4000000D03*
X7265600Y3867500D03*
X-5100000Y-1900000D03*
X4015600Y10767500D03*
X9673200Y10980700D03*
X6265600Y3867500D03*
%TO.N,+3V3*%
X2200000Y200000D03*
X7400000Y-2200000D03*
%TO.N,+1V1*%
X8969689Y3212881D03*
X8950500Y6233868D03*
X8180574Y7475538D03*
X8954979Y4349500D03*
X6215600Y7467000D03*
%TO.N,/I2C_SDA1*%
X1100000Y2600000D03*
X1292911Y5607089D03*
%TO.N,/I2C_SCK1*%
X100000Y2607900D03*
X1100000Y4700000D03*
%TD*%
D39*
%TO.N,/usb_dp*%
X6758100Y14100000D02*
X7045600Y13812500D01*
X6000000Y14100000D02*
X6758100Y14100000D01*
X7045600Y14097500D02*
X7045600Y13812500D01*
%TO.N,Net-(U1-USB_DP)*%
X7400000Y11633100D02*
X7045600Y11987500D01*
X7400000Y8237500D02*
X7400000Y11633100D01*
D40*
%TO.N,/usb_dp*%
X7045600Y14097500D02*
X6943100Y14200000D01*
D39*
X7065600Y14117500D02*
X7045600Y14097500D01*
%TO.N,GND*%
X6845600Y11000000D02*
X6845600Y10407500D01*
X6085600Y11000000D02*
X6085600Y10421900D01*
X6085600Y10421900D02*
X6100000Y10407500D01*
D40*
%TO.N,/QSPI_SD3*%
X5800000Y9031040D02*
X5800000Y8237500D01*
X5535600Y12652474D02*
X5535600Y9295440D01*
X5535600Y9295440D02*
X5800000Y9031040D01*
X3460625Y13437500D02*
X4750574Y13437500D01*
X3005600Y12982474D02*
X3460625Y13437500D01*
X4750574Y13437500D02*
X5535600Y12652474D01*
X3005600Y12587500D02*
X3005600Y12982474D01*
%TO.N,/QSPI_SCLK*%
X3605600Y13087500D02*
X3505600Y12987500D01*
X4605600Y13087500D02*
X3605600Y13087500D01*
X3505600Y12987500D02*
X3505600Y12587500D01*
X5175600Y9188750D02*
X5175600Y12517500D01*
X5400000Y8964350D02*
X5175600Y9188750D01*
X5400000Y8237500D02*
X5400000Y8964350D01*
X5175600Y12517500D02*
X4605600Y13087500D01*
%TO.N,/QSPI_SD0*%
X4796925Y9100735D02*
X5000000Y8897660D01*
X4796925Y12336175D02*
X4796925Y9100735D01*
X5000000Y8897660D02*
X5000000Y8237500D01*
X4545600Y12587500D02*
X4796925Y12336175D01*
X4005600Y12587500D02*
X4545600Y12587500D01*
%TO.N,/QSPI_SD2*%
X4600000Y8800000D02*
X4600000Y8237500D01*
X3902500Y9497500D02*
X4600000Y8800000D01*
X3505600Y9687500D02*
X3695600Y9497500D01*
X3695600Y9497500D02*
X3902500Y9497500D01*
X3505600Y10087500D02*
X3505600Y9687500D01*
%TO.N,/QSPI_SD1*%
X3977722Y8930000D02*
X4200000Y8707722D01*
X4200000Y8707722D02*
X4200000Y8237500D01*
X3753100Y8930000D02*
X3977722Y8930000D01*
X3005600Y9677500D02*
X3753100Y8930000D01*
X3005600Y10087500D02*
X3005600Y9677500D01*
D39*
%TO.N,+3V3*%
X4630295Y14100000D02*
X6200295Y15670000D01*
X3593100Y14100000D02*
X4630295Y14100000D01*
X2505600Y13012500D02*
X3593100Y14100000D01*
X2505600Y12587500D02*
X2505600Y13012500D01*
%TO.N,GND*%
X1900000Y13300000D02*
X1197500Y13300000D01*
X2000000Y13400000D02*
X1900000Y13300000D01*
%TO.N,/usb_dp*%
X-435000Y14635000D02*
X0Y14200000D01*
X-435000Y15835000D02*
X-435000Y14635000D01*
%TO.N,/usb_dm*%
X415000Y15015000D02*
X700000Y14730000D01*
X415000Y15835000D02*
X415000Y15015000D01*
X8600000Y14100000D02*
X7900000Y14800000D01*
X8605600Y14100000D02*
X8600000Y14100000D01*
%TO.N,/usb_dp*%
X0Y14200000D02*
X1500000Y14200000D01*
%TO.N,+3V3*%
X11145300Y7054700D02*
X11145300Y7627900D01*
X11500000Y6700000D02*
X11145300Y7054700D01*
X14000295Y6100295D02*
X13800000Y5900000D01*
X15670000Y6100295D02*
X14000295Y6100295D01*
X16600000Y5170295D02*
X15670000Y6100295D01*
X16600000Y2540000D02*
X16600000Y5170295D01*
%TO.N,/BUT_MID*%
X13200295Y10499705D02*
X13130000Y10499705D01*
X14100000Y9600000D02*
X13200295Y10499705D01*
X11900000Y5000000D02*
X14100000Y7200000D01*
X14100000Y7200000D02*
X14100000Y9600000D01*
X9837500Y5000000D02*
X11900000Y5000000D01*
%TO.N,/BUT_TOP*%
X10599705Y10400295D02*
X10599705Y13130000D01*
X13400000Y7600000D02*
X10599705Y10400295D01*
X11200000Y5400000D02*
X13400000Y7600000D01*
X9837500Y5400000D02*
X11200000Y5400000D01*
%TO.N,/BUT_LOW*%
X14400000Y4600000D02*
X9837500Y4600000D01*
X15000000Y4000000D02*
X14400000Y4600000D01*
X15800000Y303087D02*
X15800000Y1000000D01*
X15800000Y1000000D02*
X15000000Y1800000D01*
X16600000Y-496913D02*
X15800000Y303087D01*
X15000000Y1800000D02*
X15000000Y4000000D01*
X16600000Y-2540000D02*
X16600000Y-496913D01*
D40*
%TO.N,Net-(E3-Pin_1)*%
X-4000000Y-200000D02*
X-4000000Y1000000D01*
X-3362500Y-837500D02*
X-4000000Y-200000D01*
X-849999Y-837500D02*
X-3362500Y-837500D01*
D39*
%TO.N,Net-(E12-Pin_1)*%
X8200000Y1362500D02*
X8200000Y-2315000D01*
X8715000Y-2315000D02*
X9400000Y-3000000D01*
X8200000Y-2315000D02*
X8715000Y-2315000D01*
X9400000Y-3000000D02*
X9400000Y-4800000D01*
%TO.N,Net-(U1-USB_DM)*%
X7800000Y8237500D02*
X7800000Y11469400D01*
X7800000Y11469400D02*
X8605600Y12275000D01*
D40*
%TO.N,/QSPI_SS*%
X2718750Y9318750D02*
X3800000Y8237500D01*
X-6487500Y9512500D02*
X-6487500Y9200000D01*
X2505600Y9531900D02*
X2718750Y9318750D01*
X-6000000Y10000000D02*
X-6487500Y9512500D01*
X2505600Y10087500D02*
X2505600Y9531900D01*
X2200000Y8800000D02*
X2718750Y9318750D01*
%TO.N,/usb_dp*%
X-435000Y15835000D02*
X-435000Y16045000D01*
X-435000Y16045000D02*
X415000Y16895000D01*
X415000Y16895000D02*
X415000Y17185000D01*
D39*
%TO.N,/usb_dm*%
X8575600Y14130000D02*
X8605600Y14100000D01*
D40*
%TO.N,GND*%
X680500Y3817900D02*
X82100Y3817900D01*
D39*
X11960300Y7627900D02*
X12619600Y7627900D01*
D41*
X-1700000Y-3600000D02*
X-1700000Y-2300000D01*
X-4800000Y-3900000D02*
X-5100000Y-3600000D01*
X-1700000Y-2300000D02*
X-2200000Y-1800000D01*
X-1947500Y8720001D02*
X-1107500Y8720001D01*
D40*
X153000Y-2953000D02*
X100000Y-2900000D01*
X-7500000Y150000D02*
X-6250000Y150000D01*
D39*
X5400000Y3800000D02*
X6400000Y4800000D01*
D40*
X82100Y3817900D02*
X-100000Y4000000D01*
D42*
X4005600Y10757500D02*
X4015600Y10767500D01*
D39*
X1128900Y-2642500D02*
X818400Y-2953000D01*
X12366700Y3817900D02*
X12975200Y3817900D01*
D40*
X-6250000Y150000D02*
X-6200000Y100000D01*
D42*
X4005600Y10087500D02*
X4005600Y10757500D01*
D39*
X5933900Y-4342500D02*
X6428400Y-3848000D01*
X9673200Y10393900D02*
X9673200Y10980700D01*
X5400000Y1362500D02*
X5400000Y3800000D01*
X2495600Y-2642500D02*
X1128900Y-2642500D01*
X6855600Y-862500D02*
X6855600Y-1602500D01*
X4695600Y-4342500D02*
X5933900Y-4342500D01*
X815600Y8017500D02*
X156300Y8017500D01*
X5265600Y3867500D02*
X5400000Y3800000D01*
D41*
X-1107500Y8720001D02*
X-1097500Y8710001D01*
D39*
X6428400Y-3848000D02*
X6941100Y-3848000D01*
X8657200Y10393900D02*
X8657200Y10980700D01*
X100000Y-837500D02*
X100000Y-2010000D01*
D41*
X2965000Y15835000D02*
X2965000Y17185000D01*
X-867500Y11300001D02*
X-857500Y11310001D01*
X-1683750Y6003749D02*
X-773750Y6003749D01*
D39*
X-4402500Y14200000D02*
X-3400000Y14200000D01*
D40*
X818400Y-2953000D02*
X153000Y-2953000D01*
D39*
X6941100Y-3848000D02*
X6945600Y-3852500D01*
X7655600Y-730000D02*
X7655600Y-1422500D01*
D41*
X-5100000Y-3600000D02*
X-5100000Y-1900000D01*
X-2985000Y15835000D02*
X-2985000Y17185000D01*
X-1762500Y11300000D02*
X-867500Y11300001D01*
%TO.N,+BATT*%
X-2450001Y12249999D02*
X-2900000Y11800000D01*
X-2253750Y5053750D02*
X-2746250Y5546250D01*
X-4900000Y6000000D02*
X-2746250Y6000000D01*
X-2900000Y11800000D02*
X-2900000Y11500000D01*
X-2746250Y6000000D02*
X-2746250Y6873750D01*
X-5300000Y11100000D02*
X-5300000Y6400000D01*
X-3100000Y11300000D02*
X-5100000Y11300000D01*
X-8600000Y11300000D02*
X-10400000Y9500000D01*
X-2746250Y5546250D02*
X-2746250Y6000000D01*
X-1157500Y12250000D02*
X-1762500Y12250001D01*
X-5300000Y6400000D02*
X-4900000Y6000000D01*
X-9800000Y-4500000D02*
X-7900000Y-4500000D01*
X-5100000Y11300000D02*
X-8600000Y11300000D01*
X-5100000Y11300000D02*
X-5300000Y11100000D01*
X-10400000Y9500000D02*
X-10400000Y-3900000D01*
X-1683750Y5053750D02*
X-2253750Y5053750D01*
X-10400000Y-3900000D02*
X-9800000Y-4500000D01*
X-1683750Y6953750D02*
X-2666250Y6953750D01*
X-1762500Y12249999D02*
X-2450001Y12249999D01*
X-2666250Y6953750D02*
X-2746250Y6873750D01*
X-2900000Y11500000D02*
X-3100000Y11300000D01*
D39*
%TO.N,+3V3*%
X6600000Y328100D02*
X6600000Y1362500D01*
D42*
X8350500Y6726225D02*
X8441775Y6817500D01*
D39*
X8768100Y3800000D02*
X9138100Y3800000D01*
X9837500Y3800000D02*
X11533800Y3800000D01*
X8242500Y2842500D02*
X8300000Y2900000D01*
X9000000Y7598100D02*
X9110600Y7487500D01*
D41*
X-2142900Y942900D02*
X-1500000Y300000D01*
D39*
X9110600Y7487500D02*
X9198100Y7400000D01*
X1500000Y11997500D02*
X2090000Y12587500D01*
X11533800Y3800000D02*
X11551700Y3817900D01*
D41*
X9110600Y7486325D02*
X9110600Y7487500D01*
D39*
X6795600Y8237500D02*
X7000000Y8237500D01*
X8300000Y3726900D02*
X8373100Y3800000D01*
D42*
X2962500Y7500000D02*
X3534315Y7500000D01*
D40*
X1600000Y9953666D02*
X2075000Y10428666D01*
D42*
X3534315Y7500000D02*
X3814315Y7220000D01*
D41*
X1495500Y3395500D02*
X1337900Y3237900D01*
D42*
X6615600Y6817500D02*
X4115600Y6817500D01*
D41*
X1647900Y8034800D02*
X1630600Y8017500D01*
D42*
X6990600Y6817500D02*
X8441775Y6817500D01*
D39*
X6600000Y2576900D02*
X6865600Y2842500D01*
X6600000Y8237500D02*
X6795600Y8237500D01*
X9000000Y8237500D02*
X9000000Y7598100D01*
X10410500Y7400000D02*
X10638400Y7627900D01*
D41*
X-2142900Y3237900D02*
X-2142900Y942900D01*
D39*
X7400000Y-2200000D02*
X7400000Y-2485000D01*
X7400000Y-2485000D02*
X8200000Y-3285000D01*
D42*
X4115600Y7220000D02*
X4115600Y6817500D01*
D39*
X9198100Y7400000D02*
X9837500Y7400000D01*
D41*
X1495500Y3817900D02*
X1495500Y3395500D01*
D39*
X10638400Y7627900D02*
X11145300Y7627900D01*
X8373100Y3800000D02*
X8768100Y3800000D01*
X9622400Y8859900D02*
X9622400Y9383100D01*
X6845600Y82500D02*
X6600000Y328100D01*
X6600000Y8237500D02*
X6600000Y8877500D01*
D40*
X2075000Y11422500D02*
X1500000Y11997500D01*
D41*
X1049999Y150001D02*
X1049999Y-837500D01*
D42*
X1630600Y8017500D02*
X2148100Y7500000D01*
D39*
X6600000Y1362500D02*
X6600000Y2576900D01*
X2090000Y12587500D02*
X2505600Y12587500D01*
D41*
X8441775Y6817500D02*
X9110600Y7486325D01*
X-1500000Y300000D02*
X900000Y300000D01*
D39*
X6865600Y9143100D02*
X6865600Y9462500D01*
X7000000Y6826900D02*
X6990600Y6817500D01*
D41*
X4115600Y4420625D02*
X4115600Y6817500D01*
X-1400000Y3237900D02*
X-2142900Y3237900D01*
D40*
X2075000Y10428666D02*
X2075000Y11422500D01*
D41*
X-2142900Y3237900D02*
X-3958750Y5053750D01*
D42*
X8350500Y3872000D02*
X8350500Y6726225D01*
D39*
X2200000Y200000D02*
X1099998Y200000D01*
X9000000Y8237500D02*
X9622400Y8859900D01*
X2962500Y3800000D02*
X1513400Y3800000D01*
X1099998Y200000D02*
X1049999Y150001D01*
D42*
X6990600Y6817500D02*
X6615600Y6817500D01*
D41*
X900000Y300000D02*
X1049999Y150001D01*
D39*
X6865600Y2842500D02*
X8242500Y2842500D01*
D41*
X1337900Y3237900D02*
X-1400000Y3237900D01*
D39*
X1513400Y3800000D02*
X1495500Y3817900D01*
X9837500Y7400000D02*
X10410500Y7400000D01*
X2962500Y3800000D02*
X3494975Y3800000D01*
D40*
X1600000Y8048100D02*
X1600000Y9953666D01*
D42*
X2148100Y7500000D02*
X2962500Y7500000D01*
D39*
X9138100Y3800000D02*
X9837500Y3800000D01*
X3494975Y3800000D02*
X4115600Y4420625D01*
X8600000Y8237500D02*
X9000000Y8237500D01*
X7000000Y8237500D02*
X7000000Y6826900D01*
X9622400Y9383100D02*
X9673200Y9433900D01*
D40*
X1630600Y8017500D02*
X1600000Y8048100D01*
D39*
X8300000Y2900000D02*
X8300000Y3726900D01*
D42*
X8400000Y3822500D02*
X8350500Y3872000D01*
D39*
X6600000Y8877500D02*
X6865600Y9143100D01*
D42*
X3814315Y7220000D02*
X4115600Y7220000D01*
D39*
X1495500Y3817900D02*
X1495500Y3749715D01*
D41*
%TO.N,Net-(R4-Pad1)*%
X-8312500Y8712500D02*
X-8312500Y9200000D01*
X-7500000Y7900000D02*
X-8312500Y8712500D01*
%TO.N,Net-(U4-PROG)*%
X-4037500Y10350001D02*
X-4037500Y8985001D01*
X-4037500Y8985001D02*
X-3772500Y8720001D01*
D39*
%TO.N,Net-(U1-XIN)*%
X2495600Y-4342500D02*
X3695600Y-3142500D01*
X5800000Y191900D02*
X5800000Y1362500D01*
X1392900Y-4342500D02*
X818400Y-3768000D01*
X2495600Y-4342500D02*
X1392900Y-4342500D01*
X5685600Y77500D02*
X5800000Y191900D01*
X3695600Y-782500D02*
X4555600Y77500D01*
X3695600Y-3142500D02*
X3695600Y-782500D01*
X4555600Y77500D02*
X5685600Y77500D01*
D41*
%TO.N,+5V*%
X-2600000Y13200000D02*
X-2135000Y13665000D01*
X-2135000Y13665000D02*
X-2135000Y15835000D01*
X-4037500Y12249999D02*
X-4037500Y12762500D01*
X-3600000Y13200000D02*
X-2600000Y13200000D01*
X-4037500Y12762500D02*
X-3600000Y13200000D01*
D39*
%TO.N,Net-(U1-XOUT)*%
X4415600Y-1122500D02*
X5035600Y-502500D01*
X5035600Y-502500D02*
X5865600Y-502500D01*
X5865600Y-502500D02*
X6200000Y-168100D01*
X6200000Y-168100D02*
X6200000Y1362500D01*
D40*
%TO.N,/CHRG_IND*%
X200000Y7000000D02*
X-400000Y7600000D01*
X-1762500Y10350001D02*
X100000Y10350001D01*
X1047501Y10350001D02*
X1500000Y10802500D01*
X-400000Y7600000D02*
X-400000Y8500000D01*
X2962500Y7000000D02*
X200000Y7000000D01*
X-400000Y8500000D02*
X100000Y9000000D01*
X100000Y10350001D02*
X1047501Y10350001D01*
X100000Y9000000D02*
X100000Y10350001D01*
X-2076041Y10350001D02*
X-1762500Y10350001D01*
D39*
%TO.N,+1V1*%
X6200000Y7482600D02*
X6200000Y8237500D01*
X8969689Y3004003D02*
X8969689Y3212881D01*
X8954979Y6229389D02*
X8950500Y6233868D01*
X6200000Y8237500D02*
X6200000Y9423600D01*
X7315600Y2293000D02*
X7000000Y1977400D01*
X8200000Y7494964D02*
X8200000Y8237500D01*
X8258686Y2293000D02*
X8969689Y3004003D01*
X8657200Y9433900D02*
X8200000Y8976700D01*
X7648100Y85000D02*
X7000000Y733100D01*
X8200000Y8976700D02*
X8200000Y8237500D01*
X7000000Y733100D02*
X7000000Y1362500D01*
X7655600Y85000D02*
X7648100Y85000D01*
X6137600Y9418000D02*
X6105600Y9450000D01*
X7000000Y1977400D02*
X7000000Y1362500D01*
X8954979Y4349500D02*
X8954979Y6229389D01*
X8258686Y2293000D02*
X7315600Y2293000D01*
X8180574Y7475538D02*
X8200000Y7494964D01*
X6215600Y7467000D02*
X6200000Y7482600D01*
D40*
%TO.N,Net-(E6-Pin_1)*%
X9837500Y3400000D02*
X10913100Y3400000D01*
X11215600Y3097500D02*
X13302500Y3097500D01*
X10913100Y3400000D02*
X11215600Y3097500D01*
X13302500Y3097500D02*
X13800000Y2600000D01*
%TO.N,Net-(E7-Pin_1)*%
X9837500Y3000000D02*
X10818126Y3000000D01*
X13000000Y1600000D02*
X14000000Y600000D01*
X12218126Y1600000D02*
X13000000Y1600000D01*
X10818126Y3000000D02*
X12218126Y1600000D01*
X14000000Y600000D02*
X14400000Y600000D01*
%TO.N,Net-(E8-Pin_1)*%
X9837500Y2600000D02*
X10593100Y2600000D01*
X10593100Y2600000D02*
X12200000Y993100D01*
X12200000Y993100D02*
X12200000Y200000D01*
%TO.N,Net-(E9-Pin_1)*%
X11475600Y-1875600D02*
X11475600Y-1075600D01*
X11600000Y-2000000D02*
X11475600Y-1875600D01*
X11475600Y-1075600D02*
X9837500Y562500D01*
X9837500Y562500D02*
X9837500Y2200000D01*
%TO.N,Net-(E10-Pin_1)*%
X9000000Y-400000D02*
X9000000Y1362500D01*
X9600000Y-1000000D02*
X9000000Y-400000D01*
%TO.N,Net-(E11-Pin_1)*%
X8600000Y-1200000D02*
X11600000Y-4200000D01*
X8600000Y1362500D02*
X8600000Y-1200000D01*
D39*
%TO.N,Net-(C2-Pad2)*%
X5635600Y-2642500D02*
X6037900Y-2642500D01*
X5610600Y-2617500D02*
X5635600Y-2642500D01*
X5610600Y-1122500D02*
X5610600Y-2617500D01*
X6037900Y-2642500D02*
X6428400Y-3033000D01*
X4695600Y-2642500D02*
X5635600Y-2642500D01*
D40*
%TO.N,/I2C_SDA1*%
X1100000Y2600000D02*
X1100000Y1487501D01*
X1100000Y1487501D02*
X1049999Y1437500D01*
X1885822Y6200000D02*
X2962500Y6200000D01*
X1292911Y5607089D02*
X1885822Y6200000D01*
%TO.N,/I2C_SCK1*%
X100000Y2607900D02*
X100000Y1437500D01*
X1100000Y4700000D02*
X2200000Y5800000D01*
X2200000Y5800000D02*
X2962500Y5800000D01*
D39*
%TO.N,Net-(J1-CC1)*%
X-700000Y13300000D02*
X-1285000Y13885000D01*
X2500Y13300000D02*
X-700000Y13300000D01*
X-1285000Y13885000D02*
X-1285000Y15835000D01*
%TO.N,Net-(J1-CC2)*%
X-5597500Y14200000D02*
X-5200000Y14597500D01*
X457500Y18597500D02*
X1265000Y17790000D01*
X-5200000Y14597500D02*
X-5200000Y18200000D01*
X-4802500Y18597500D02*
X457500Y18597500D01*
X-5200000Y18200000D02*
X-4802500Y18597500D01*
X1265000Y17790000D02*
X1265000Y17185000D01*
%TD*%
M02*
