%TF.GenerationSoftware,KiCad,Pcbnew,8.0.7*%
%TF.CreationDate,2026-02-16T15:29:00+00:00*%
%TF.ProjectId,analog_dial,616e616c-6f67-45f6-9469-616c2e6b6963,rev?*%
%TF.SameCoordinates,Original*%
%TF.FileFunction,Copper,L2,Bot*%
%TF.FilePolarity,Positive*%
%FSLAX46Y46*%
G04 Gerber Fmt 4.6, Leading zero omitted, Abs format (unit mm)*
G04 Created by KiCad (PCBNEW 8.0.7) date 2026-02-16 15:29:00*
%MOMM*%
%LPD*%
G01*
G04 APERTURE LIST*
G04 APERTURE END LIST*
%TA.AperFunction,NonConductor*%
G36*
X23204018Y-507343D02*
G01*
X24133209Y-545752D01*
X24133680Y-545781D01*
X25060457Y-623010D01*
X25060920Y-623059D01*
X25983657Y-738972D01*
X25984125Y-739041D01*
X26901216Y-893438D01*
X26901622Y-893515D01*
X27811509Y-1086136D01*
X27811959Y-1086241D01*
X28712941Y-1316726D01*
X28713367Y-1316844D01*
X29603930Y-1584804D01*
X29604355Y-1584942D01*
X30482950Y-1889909D01*
X30483363Y-1890062D01*
X31076449Y-2124150D01*
X31348419Y-2231495D01*
X31348863Y-2231681D01*
X31422708Y-2264459D01*
X32198884Y-2608985D01*
X32199284Y-2609173D01*
X33032794Y-3021695D01*
X33033221Y-3021918D01*
X33848711Y-3468909D01*
X33849127Y-3469148D01*
X34645244Y-3949866D01*
X34645651Y-3950124D01*
X35420952Y-4463698D01*
X35421342Y-4463968D01*
X36072133Y-4935369D01*
X36174486Y-5009508D01*
X36174863Y-5009793D01*
X36468117Y-5241509D01*
X36904559Y-5586367D01*
X36904930Y-5586673D01*
X37609861Y-6193237D01*
X37610219Y-6193558D01*
X38289181Y-6829079D01*
X38289525Y-6829415D01*
X38941306Y-7492757D01*
X38941636Y-7493107D01*
X39565123Y-8183136D01*
X39565438Y-8183500D01*
X40159518Y-8898987D01*
X40159817Y-8899363D01*
X40723457Y-9639061D01*
X40723733Y-9639440D01*
X40736526Y-9657770D01*
X41255975Y-10402095D01*
X41256241Y-10402495D01*
X41756100Y-11186694D01*
X41756342Y-11187092D01*
X41909304Y-11450780D01*
X42222983Y-11991526D01*
X42223216Y-11991947D01*
X42655811Y-12815185D01*
X42656026Y-12815615D01*
X43053827Y-13656241D01*
X43054023Y-13656680D01*
X43416306Y-14513154D01*
X43416485Y-14513601D01*
X43742658Y-15384529D01*
X43742817Y-15384983D01*
X44032278Y-16268761D01*
X44032418Y-16269221D01*
X44284671Y-17164322D01*
X44284792Y-17164787D01*
X44499401Y-18069677D01*
X44499502Y-18070147D01*
X44676084Y-18983212D01*
X44676165Y-18983686D01*
X44814410Y-19903310D01*
X44814472Y-19903787D01*
X44914147Y-20828432D01*
X44914188Y-20828912D01*
X44975110Y-21756863D01*
X44975132Y-21757343D01*
X44997200Y-22687082D01*
X44997201Y-22687563D01*
X44980373Y-23617384D01*
X44980354Y-23617865D01*
X44924663Y-24546148D01*
X44924625Y-24546627D01*
X44830161Y-25471820D01*
X44830102Y-25472297D01*
X44697039Y-26392704D01*
X44696960Y-26393179D01*
X44525526Y-27307225D01*
X44525427Y-27307696D01*
X44315927Y-28213756D01*
X44315809Y-28214222D01*
X44068605Y-29110731D01*
X44068468Y-29111192D01*
X43783985Y-29996607D01*
X43783828Y-29997062D01*
X43462580Y-30869781D01*
X43462405Y-30870228D01*
X43104932Y-31728785D01*
X43104737Y-31729225D01*
X42711702Y-32572029D01*
X42711490Y-32572461D01*
X42283538Y-33398134D01*
X42283308Y-33398556D01*
X41821209Y-34205601D01*
X41820961Y-34206014D01*
X41620034Y-34525190D01*
X41612852Y-34530277D01*
X41604175Y-34528795D01*
X41603583Y-34528396D01*
X41182508Y-34225232D01*
X40731481Y-33900503D01*
X39823577Y-33293476D01*
X38895178Y-32718283D01*
X38215875Y-32329334D01*
X37947402Y-32175614D01*
X36981384Y-31666120D01*
X35998276Y-31190409D01*
X34999304Y-30749073D01*
X34155224Y-30410626D01*
X33985604Y-30342615D01*
X33450740Y-30149390D01*
X32958439Y-29971541D01*
X31919031Y-29636292D01*
X31919033Y-29636292D01*
X31919022Y-29636289D01*
X30868614Y-29337266D01*
X30868602Y-29337263D01*
X30868595Y-29337261D01*
X29808474Y-29074830D01*
X28739881Y-28849299D01*
X28739883Y-28849299D01*
X28739872Y-28849297D01*
X27664097Y-28660936D01*
X26582439Y-28509976D01*
X26582431Y-28509975D01*
X26582430Y-28509975D01*
X25496185Y-28396594D01*
X24406690Y-28320934D01*
X23315198Y-28283081D01*
X23315197Y-28283081D01*
X23315183Y-28283081D01*
X22773890Y-28283093D01*
X22773889Y-28283093D01*
X22249582Y-28283070D01*
X22249581Y-28283070D01*
X22249575Y-28283070D01*
X21764925Y-28299061D01*
X21211032Y-28317338D01*
X20658058Y-28353869D01*
X20174199Y-28385835D01*
X19140181Y-28488488D01*
X19140177Y-28488488D01*
X19140172Y-28488489D01*
X18110112Y-28625184D01*
X17085120Y-28795774D01*
X16066283Y-29000079D01*
X15054753Y-29237868D01*
X14051629Y-29508883D01*
X13057974Y-29812834D01*
X12074883Y-30149390D01*
X11103440Y-30518176D01*
X10144661Y-30918809D01*
X9199654Y-31350826D01*
X9199637Y-31350834D01*
X8440179Y-31728785D01*
X8269347Y-31813801D01*
X7354863Y-32307178D01*
X6457158Y-32830438D01*
X5846381Y-33213981D01*
X5577160Y-33383042D01*
X5416427Y-33491527D01*
X4715872Y-33964358D01*
X3909045Y-34548548D01*
X3900484Y-34550588D01*
X3892986Y-34545977D01*
X3892575Y-34545370D01*
X3882117Y-34528795D01*
X3690833Y-34225628D01*
X3690595Y-34225232D01*
X3540865Y-33964355D01*
X3227660Y-33418652D01*
X3227434Y-33418238D01*
X3217207Y-33398556D01*
X2798624Y-32592992D01*
X2798420Y-32592577D01*
X2788919Y-32572259D01*
X2404508Y-31750157D01*
X2404317Y-31749726D01*
X2045962Y-30891543D01*
X2045793Y-30891112D01*
X2038081Y-30870228D01*
X1723640Y-30018704D01*
X1723483Y-30018249D01*
X1581163Y-29576860D01*
X1438092Y-29133140D01*
X1437957Y-29132688D01*
X1431878Y-29110731D01*
X1189821Y-28236401D01*
X1189719Y-28236000D01*
X979274Y-27330105D01*
X979175Y-27329635D01*
X806799Y-26415762D01*
X806720Y-26415287D01*
X672709Y-25495017D01*
X672653Y-25494565D01*
X577238Y-24569481D01*
X577199Y-24569013D01*
X575833Y-24546627D01*
X520549Y-23640727D01*
X520531Y-23640262D01*
X520098Y-23617620D01*
X502746Y-22710431D01*
X502746Y-22710002D01*
X523857Y-21780214D01*
X523875Y-21779787D01*
X583847Y-20851695D01*
X583883Y-20851264D01*
X682609Y-19926494D01*
X682664Y-19926064D01*
X819975Y-19006216D01*
X820043Y-19005814D01*
X995696Y-18092514D01*
X995794Y-18092060D01*
X1209474Y-17186939D01*
X1209574Y-17186551D01*
X1460934Y-16291083D01*
X1461048Y-16290709D01*
X1749612Y-15406594D01*
X1749765Y-15406157D01*
X1757670Y-15384983D01*
X2075056Y-14534854D01*
X2075201Y-14534489D01*
X2436645Y-13677540D01*
X2436807Y-13677177D01*
X2833754Y-12836118D01*
X2833961Y-12835703D01*
X3265736Y-12011965D01*
X3265937Y-12011602D01*
X3731772Y-11206651D01*
X3731978Y-11206310D01*
X4231076Y-10421522D01*
X4231319Y-10421157D01*
X4762798Y-9657923D01*
X4763015Y-9657624D01*
X5325957Y-8917261D01*
X5326215Y-8916937D01*
X5919599Y-8200789D01*
X5919853Y-8200494D01*
X6542680Y-7509767D01*
X6543001Y-7509428D01*
X6559005Y-7493107D01*
X7194124Y-6845389D01*
X7194396Y-6845122D01*
X7872768Y-6208842D01*
X7873067Y-6208574D01*
X8577402Y-5601258D01*
X8577771Y-5600954D01*
X9306902Y-5023606D01*
X9307218Y-5023367D01*
X10059843Y-4477020D01*
X10060203Y-4476769D01*
X10835050Y-3962346D01*
X10835380Y-3962137D01*
X11631045Y-3480574D01*
X11631397Y-3480371D01*
X12446523Y-3032488D01*
X12446850Y-3032316D01*
X13280011Y-2618898D01*
X13280389Y-2618721D01*
X14130018Y-2240543D01*
X14130422Y-2240373D01*
X14995184Y-1898027D01*
X14995574Y-1897883D01*
X15873862Y-1592007D01*
X15874244Y-1591883D01*
X16764575Y-1322993D01*
X16765008Y-1322873D01*
X17665771Y-1091456D01*
X17666187Y-1091359D01*
X18575846Y-897806D01*
X18576285Y-897723D01*
X19493223Y-742381D01*
X19493651Y-742317D01*
X20416347Y-625444D01*
X20416730Y-625404D01*
X21343463Y-547217D01*
X21343902Y-547189D01*
X22273128Y-507821D01*
X22273523Y-507812D01*
X23203547Y-507334D01*
X23204018Y-507343D01*
G37*
%TD.AperFunction*%
M02*
